<svg xmlns="http://www.w3.org/2000/svg" width="17.61" height="17.561" viewBox="0 0 17.61 17.561">
  <path id="image-gallery" d="M17.553,16.445a.5.5,0,1,1,.962.274,2.5,2.5,0,0,1-1.8,1.743L8.588,20.493a2.508,2.508,0,0,1-3.034-1.865l-2.1-9.1a2.5,2.5,0,0,1,1.83-2.988l1.889-.472a.5.5,0,0,1,.243.97l-1.889.472A1.5,1.5,0,0,0,4.429,9.3l2.1,9.1a1.506,1.506,0,0,0,1.825,1.118l8.119-2.03A1.5,1.5,0,0,0,17.553,16.445ZM20,13.293V5.5A1.5,1.5,0,0,0,18.5,4h-9A1.5,1.5,0,0,0,8,5.5v5.793l2.146-2.146a.5.5,0,0,1,.707,0l3.71,3.71,2.659-1.773a.5.5,0,0,1,.631.062L20,13.293Zm-.013,1.4-2.551-2.551-2.659,1.773a.5.5,0,0,1-.631-.062L10.5,10.207,8,12.707V14.5A1.5,1.5,0,0,0,9.5,16h9a1.5,1.5,0,0,0,1.487-1.305ZM9.5,3h9A2.5,2.5,0,0,1,21,5.5v9A2.5,2.5,0,0,1,18.5,17h-9A2.5,2.5,0,0,1,7,14.5v-9A2.5,2.5,0,0,1,9.5,3ZM16,5h2a1,1,0,0,1,1,1V8a1,1,0,0,1-1,1H16a1,1,0,0,1-1-1V6A1,1,0,0,1,16,5Zm0,1V8h2V6Z" transform="translate(-3.39 -3)" fill="#fefefe"/>
</svg>
