<svg id="menu" xmlns="http://www.w3.org/2000/svg" width="64.829" height="54.992" viewBox="0 0 64.829 54.992">
  <g id="_x33__1_">
    <g id="Grupo_36" data-name="Grupo 36">
      <path id="Trazado_54" data-name="Trazado 54" d="M6.483,11H58.346c3.579,0,6.483-2.461,6.483-5.5S61.928,0,58.346,0H6.483C2.9,0,0,2.461,0,5.5S2.9,11,6.483,11ZM58.346,22H6.483C2.9,22,0,24.458,0,27.5S2.9,33,6.483,33H58.346c3.579,0,6.483-2.461,6.483-5.5S61.928,22,58.346,22Zm0,22H6.483C2.9,43.993,0,46.454,0,49.493s2.9,5.5,6.483,5.5H58.346c3.579,0,6.483-2.461,6.483-5.5S61.928,43.993,58.346,43.993Z" fill="#fcfcfc"/>
    </g>
  </g>
</svg>
