<svg id="random_icon" xmlns="http://www.w3.org/2000/svg" width="163.148" height="145.669" viewBox="0 0 163.148 145.669">
  <path id="Trazado_55" data-name="Trazado 55" d="M61.634,23.628Q56.172,32,49.161,48.482q-2-4.1-3.369-6.6A59.9,59.9,0,0,0,42.106,36.1a25.368,25.368,0,0,0-4.643-5.144,21.423,21.423,0,0,0-5.736-3.186,20.4,20.4,0,0,0-7.42-1.32H3.913A2.806,2.806,0,0,1,1,23.537V6.057A2.806,2.806,0,0,1,3.913,3.143H24.307q22.76,0,37.327,20.485ZM164.147,96.37a2.836,2.836,0,0,1-.82,2.094L134.194,127.6a2.836,2.836,0,0,1-2.094.82,2.953,2.953,0,0,1-2.913-2.913v-17.48q-2.913,0-7.739.041t-7.374.1q-2.549.041-6.646-.1t-6.464-.455q-2.367-.318-5.827-.956A24.528,24.528,0,0,1,89.4,104.97q-2.276-1.047-5.28-2.595a26.1,26.1,0,0,1-5.371-3.642q-2.367-2.094-5.007-4.871a52.663,52.663,0,0,1-5.1-6.328q5.371-8.467,12.382-24.854,2,4.1,3.369,6.6a59.9,59.9,0,0,0,3.687,5.781,25.368,25.368,0,0,0,4.643,5.144,21.42,21.42,0,0,0,5.736,3.187,20.4,20.4,0,0,0,7.42,1.32h23.307V67.233a2.806,2.806,0,0,1,2.914-2.914,3.423,3.423,0,0,1,2.185.911l29.042,29.042a2.836,2.836,0,0,1,.82,2.094Z" transform="translate(-1 17.251)" fill="#b2e6da"/>
  <path id="Trazado_56" data-name="Trazado 56" d="M164.148,33.691a2.836,2.836,0,0,1-.82,2.094L134.195,64.918a2.836,2.836,0,0,1-2.094.82,2.953,2.953,0,0,1-2.913-2.913V45.345H105.881A21.909,21.909,0,0,0,97.96,46.71a17.869,17.869,0,0,0-6.282,4.1,36.912,36.912,0,0,0-4.643,5.6,77.57,77.57,0,0,0-4.1,7.056q-2.913,5.645-7.1,15.568Q73.2,85.039,71.33,89.136T66.414,98.7a77.369,77.369,0,0,1-5.827,9.1,72.942,72.942,0,0,1-6.737,7.556,37.124,37.124,0,0,1-8.194,6.236,44.853,44.853,0,0,1-9.7,3.824,43.783,43.783,0,0,1-11.653,1.5H3.913A2.805,2.805,0,0,1,1,124v-17.48a2.806,2.806,0,0,1,2.913-2.914H24.307a21.911,21.911,0,0,0,7.921-1.366,17.87,17.87,0,0,0,6.282-4.1,36.913,36.913,0,0,0,4.643-5.6,77.608,77.608,0,0,0,4.1-7.056q2.913-5.644,7.1-15.568,2.64-6.009,4.507-10.106t4.916-9.559a77.365,77.365,0,0,1,5.827-9.1A72.958,72.958,0,0,1,76.337,33.6a37.123,37.123,0,0,1,8.194-6.236,44.858,44.858,0,0,1,9.7-3.824,43.78,43.78,0,0,1,11.653-1.5h23.307V4.557A2.806,2.806,0,0,1,132.1,1.643a3.423,3.423,0,0,1,2.185.911L163.328,31.6a2.836,2.836,0,0,1,.82,2.094Z" transform="translate(-1 -1.643)" fill="#fff"/>
</svg>
